<?xml version="1.0" standalone="no"?>
<!DOCTYPE svg PUBLIC "-//W3C//DTD SVG 20010904//EN"
 "http://www.w3.org/TR/2001/REC-SVG-20010904/DTD/svg10.dtd">
<svg version="1.0" xmlns="http://www.w3.org/2000/svg"
 width="173.000000pt" height="171.000000pt" viewBox="0 0 173.000000 171.000000"
 preserveAspectRatio="xMidYMid meet">

<g transform="translate(0.000000,171.000000) scale(0.100000,-0.100000)"
fill="#0118E2" stroke="none">
<path d="M680 1443 l-135 -78 -3 -77 -3 -77 -84 -48 -85 -48 2 -270 3 -269
230 -133 230 -132 60 34 c33 18 137 78 230 133 l170 99 3 274 2 274 -137 81
c-76 45 -160 94 -186 109 l-48 28 3 -58 3 -58 142 -81 143 -81 -3 -229 -2
-230 -185 -108 c-102 -59 -192 -106 -200 -104 -8 2 -96 51 -195 109 l-180 105
-3 226 -2 226 40 25 c22 14 42 25 45 25 3 0 5 -98 5 -218 l0 -219 143 -81 c78
-45 147 -82 154 -82 6 0 74 37 152 81 l141 82 0 173 0 173 -145 -85 -146 -85
-144 83 c-80 46 -145 85 -145 88 0 3 59 39 131 80 72 41 133 79 135 85 3 6 3
84 2 173 l-3 162 -135 -77z"/>
</g>
</svg>
