<?xml version="1.0" standalone="no"?>
<!DOCTYPE svg PUBLIC "-//W3C//DTD SVG 20010904//EN"
 "http://www.w3.org/TR/2001/REC-SVG-20010904/DTD/svg10.dtd">
<svg version="1.0" xmlns="http://www.w3.org/2000/svg"
 width="349.000000pt" height="171.000000pt" viewBox="0 0 349.000000 171.000000"
 preserveAspectRatio="xMidYMid meet">

<g transform="translate(0.000000,171.000000) scale(0.100000,-0.100000)"
fill="#0118E2" stroke="none">
<path d="M680 1443 l-135 -78 -3 -77 -3 -77 -84 -48 -85 -48 2 -270 3 -269
230 -133 230 -132 60 34 c33 18 137 78 230 133 l170 99 3 274 2 274 -137 81
c-76 45 -160 94 -186 109 l-48 28 3 -58 3 -58 142 -81 143 -81 -3 -229 -2
-230 -185 -108 c-102 -59 -192 -106 -200 -104 -8 2 -96 51 -195 109 l-180 105
-3 226 -2 226 40 25 c22 14 42 25 45 25 3 0 5 -98 5 -218 l0 -219 143 -81 c78
-45 147 -82 154 -82 6 0 74 37 152 81 l141 82 0 173 0 173 -145 -85 -146 -85
-144 83 c-80 46 -145 85 -145 88 0 3 59 39 131 80 72 41 133 79 135 85 3 6 3
84 2 173 l-3 162 -135 -77z"/>
<path d="M2206 1400 c-37 -12 -85 -56 -102 -97 -17 -38 -18 -140 -3 -180 36
-95 148 -138 246 -94 65 30 102 121 48 121 -18 0 -28 -9 -40 -35 -31 -63 -117
-71 -171 -14 -23 24 -29 40 -32 93 -7 102 34 159 113 159 47 0 95 -30 95 -60
0 -8 12 -13 30 -13 40 0 40 28 -1 74 -43 50 -112 67 -183 46z"/>
<path d="M2552 1389 c-25 -12 -55 -39 -70 -62 -23 -35 -27 -51 -27 -117 0 -67
3 -82 28 -119 73 -110 238 -106 305 7 54 94 28 232 -55 283 -51 32 -129 35
-181 8z m164 -73 c75 -79 41 -230 -57 -251 -42 -9 -95 12 -121 48 -33 46 -33
148 0 194 43 61 125 64 178 9z"/>
<path d="M1620 1210 l0 -190 25 0 25 0 0 140 c0 77 3 140 8 140 4 0 46 -62 93
-138 78 -125 88 -137 117 -140 l32 -3 0 190 0 191 -30 0 -29 0 -3 -140 -3
-141 -88 141 c-81 128 -91 140 -118 140 l-29 0 0 -190z"/>
<path d="M1982 1208 l3 -193 33 -3 32 -3 0 195 0 196 -35 0 -35 0 2 -192z"/>
<path d="M2860 1210 l0 -190 120 0 120 0 0 25 c0 25 -1 25 -90 25 l-90 0 0
165 0 165 -30 0 -30 0 0 -190z"/>
<path d="M2360 737 c-61 -32 -90 -89 -90 -175 0 -114 51 -182 146 -198 83 -13
166 35 180 104 6 31 5 32 -25 32 -19 0 -31 -5 -31 -14 0 -26 -40 -64 -75 -70
-79 -15 -135 45 -135 144 0 29 7 67 16 85 19 41 74 70 117 61 34 -7 77 -42 77
-63 0 -8 12 -13 31 -13 29 0 31 2 24 28 -22 88 -142 129 -235 79z"/>
<path d="M1620 560 l0 -190 30 0 30 0 0 75 0 75 65 0 c114 0 165 37 165 118 0
37 -6 50 -34 78 l-34 34 -111 0 -111 0 0 -190z m210 120 c23 -23 26 -58 6 -85
-11 -15 -30 -20 -85 -23 l-71 -4 0 66 0 66 65 0 c52 0 69 -4 85 -20z"/>
<path d="M2050 747 c0 -2 -31 -86 -70 -188 -38 -101 -70 -185 -70 -186 0 -2
13 -3 29 -3 26 0 32 6 49 53 l20 52 77 0 77 0 20 -52 c17 -47 23 -53 49 -53
16 0 29 3 29 7 0 4 -33 90 -72 190 l-73 183 -32 0 c-18 0 -33 -2 -33 -3z m84
-194 c7 -22 5 -23 -48 -23 -31 0 -56 4 -56 9 0 6 12 42 27 82 l27 72 22 -59
c12 -32 25 -69 28 -81z"/>
<path d="M2650 560 l0 -190 25 0 c24 0 25 2 25 63 0 57 3 66 29 91 l29 28 29
-39 c15 -22 44 -62 63 -91 32 -47 39 -52 73 -52 l37 0 -81 111 -81 111 78 79
79 79 -40 0 c-37 0 -45 -6 -118 -85 -43 -47 -83 -85 -88 -85 -5 0 -9 38 -9 85
0 84 0 85 -25 85 l-25 0 0 -190z"/>
</g>
</svg>
